<svg width="24" height="24" viewBox="0 0 24 24" fill="none" xmlns="http://www.w3.org/2000/svg">
<g clip-path="url(#clip0_2_24)">
<path d="M12 23.7419C5.3736 23.7419 0 18.4261 0 11.871C0 5.31582 5.3736 0 12 0C18.6264 0 24 5.31582 24 11.871C24 18.4261 18.6264 23.7419 12 23.7419Z" fill="url(#paint0_linear_2_24)"/>
<path d="M12 5.22797C14.1864 5.22797 14.4456 5.2351 15.3096 5.27546C16.1088 5.31107 16.5432 5.44403 16.8312 5.55561C17.2128 5.70281 17.4864 5.8785 17.772 6.16103C18.0576 6.44356 18.2352 6.71422 18.384 7.09172C18.4968 7.37662 18.6288 7.80635 18.6672 8.59696C18.7056 9.45166 18.7152 9.70808 18.7152 11.871C18.7152 14.0339 18.708 14.2903 18.6672 15.145C18.6312 15.9356 18.4968 16.3653 18.384 16.6502C18.2352 17.0277 18.0576 17.2984 17.772 17.5809C17.4864 17.8634 17.2128 18.0391 16.8312 18.1863C16.5432 18.2979 16.1088 18.4285 15.3096 18.4665C14.4456 18.5045 14.1864 18.514 12 18.514C9.8136 18.514 9.5544 18.5068 8.6904 18.4665C7.8912 18.4309 7.4568 18.2979 7.1688 18.1863C6.7872 18.0391 6.5136 17.8634 6.228 17.5809C5.9424 17.2984 5.7648 17.0277 5.616 16.6502C5.5032 16.3653 5.3712 15.9356 5.3328 15.145C5.2944 14.2903 5.2848 14.0339 5.2848 11.871C5.2848 9.70808 5.292 9.45166 5.3328 8.59696C5.3688 7.80635 5.5032 7.37662 5.616 7.09172C5.7648 6.71422 5.9424 6.44356 6.228 6.16103C6.5136 5.8785 6.7872 5.70281 7.1688 5.55561C7.4568 5.44403 7.8912 5.31345 8.6904 5.27546C9.5544 5.2351 9.8136 5.22797 12 5.22797ZM12 3.76785C9.7752 3.76785 9.4968 3.77734 8.6232 3.8177C7.752 3.85806 7.1568 3.99339 6.6336 4.1952C6.096 4.39938 5.6376 4.67716 5.184 5.12826C4.728 5.57935 4.4496 6.03045 4.2384 6.56465C4.0368 7.07985 3.8976 7.66865 3.8568 8.53285C3.816 9.39706 3.8064 9.67247 3.8064 11.8733C3.8064 14.0742 3.816 14.3496 3.8568 15.2138C3.8976 16.0757 4.0344 16.6645 4.2384 17.182C4.4472 17.7115 4.728 18.165 5.184 18.6137C5.64 19.0648 6.096 19.3402 6.636 19.5491C7.1568 19.7485 7.752 19.8862 8.6256 19.9266C9.4992 19.967 9.7776 19.9765 12.0024 19.9765C14.2272 19.9765 14.5056 19.967 15.3792 19.9266C16.2504 19.8862 16.8456 19.7509 17.3688 19.5491C17.904 19.3426 18.3624 19.0648 18.816 18.6137C19.272 18.1626 19.5504 17.7115 19.7616 17.1773C19.9632 16.6621 20.1024 16.0733 20.1432 15.2091C20.184 14.3449 20.1936 14.0695 20.1936 11.8686C20.1936 9.66772 20.184 9.39231 20.1432 8.5281C20.1024 7.66627 19.9656 7.07747 19.7616 6.5599C19.5528 6.03045 19.272 5.57698 18.816 5.12826C18.36 4.67716 17.904 4.40176 17.364 4.19283C16.8432 3.99339 16.248 3.85569 15.3744 3.81533C14.5032 3.77734 14.2248 3.76785 12 3.76785Z" fill="white"/>
<path d="M12 7.70901C9.6768 7.70901 7.7928 9.57275 7.7928 11.871C7.7928 14.1692 9.6768 16.0329 12 16.0329C14.3232 16.0329 16.2072 14.1692 16.2072 11.871C16.2072 9.57275 14.3232 7.70901 12 7.70901ZM12 14.5728C10.4928 14.5728 9.2688 13.3643 9.2688 11.871C9.2688 10.3776 10.4928 9.16914 12 9.16914C13.5072 9.16914 14.7312 10.3776 14.7312 11.871C14.7312 13.3643 13.5072 14.5728 12 14.5728Z" fill="white"/>
<path d="M16.3728 8.51861C16.9162 8.51861 17.3568 8.08279 17.3568 7.54519C17.3568 7.00758 16.9162 6.57177 16.3728 6.57177C15.8293 6.57177 15.3888 7.00758 15.3888 7.54519C15.3888 8.08279 15.8293 8.51861 16.3728 8.51861Z" fill="white"/>
</g>
<defs>
<linearGradient id="paint0_linear_2_24" x1="3.51472" y1="20.265" x2="20.3018" y2="3.29544" gradientUnits="userSpaceOnUse">
<stop stop-color="#FFD521"/>
<stop offset="0.0551048" stop-color="#FFD020"/>
<stop offset="0.1241" stop-color="#FEC01E"/>
<stop offset="0.2004" stop-color="#FCA71B"/>
<stop offset="0.2821" stop-color="#FA8316"/>
<stop offset="0.3681" stop-color="#F85510"/>
<stop offset="0.4563" stop-color="#F51E09"/>
<stop offset="0.5" stop-color="#F30005"/>
<stop offset="0.5035" stop-color="#F20007"/>
<stop offset="0.5966" stop-color="#E1003B"/>
<stop offset="0.6879" stop-color="#D30067"/>
<stop offset="0.7757" stop-color="#C70088"/>
<stop offset="0.8589" stop-color="#BF00A0"/>
<stop offset="0.9357" stop-color="#BB00AF"/>
<stop offset="1" stop-color="#B900B4"/>
</linearGradient>
<clipPath id="clip0_2_24">
<rect width="24" height="23.7419" fill="white"/>
</clipPath>
</defs>
</svg>
