<svg width="24" height="24" viewBox="0 0 24 24" fill="none" xmlns="http://www.w3.org/2000/svg">
<g clip-path="url(#clip0_2_30)">
<path d="M12 23.5C18.6274 23.5 24 18.2393 24 11.75C24 5.26065 18.6274 0 12 0C5.37258 0 0 5.26065 0 11.75C0 18.2393 5.37258 23.5 12 23.5Z" fill="#4D76A1"/>
<path fill-rule="evenodd" clip-rule="evenodd" d="M11.5453 16.9044H12.4875C12.4875 16.9044 12.7734 16.8723 12.9188 16.7208C13.0547 16.5785 13.05 16.3169 13.05 16.3169C13.05 16.3169 13.0312 15.0776 13.6172 14.8986C14.1937 14.7196 14.9391 16.092 15.7266 16.6244C16.3219 17.0237 16.7719 16.9365 16.7719 16.9365L18.8766 16.909C18.8766 16.909 19.9781 16.8447 19.4531 15.9956C19.4109 15.9268 19.1484 15.3668 17.8875 14.2239C16.5703 13.026 16.7437 13.2187 18.3328 11.1441C19.3031 9.88193 19.6875 9.11084 19.5656 8.78037C19.4484 8.46367 18.7406 8.55088 18.7406 8.55088L16.3687 8.56465C16.3687 8.56465 16.1953 8.5417 16.0641 8.61514C15.9375 8.68857 15.8531 8.86299 15.8531 8.86299C15.8531 8.86299 15.4781 9.84062 14.9766 10.6714C13.9219 12.4247 13.5 12.5165 13.3266 12.4109C12.9234 12.1539 13.0266 11.392 13.0266 10.8458C13.0266 9.14756 13.2891 8.43613 12.5156 8.25254C12.2578 8.19287 12.0703 8.15156 11.4094 8.14697C10.5656 8.13779 9.84844 8.14697 9.44062 8.34434C9.17344 8.47285 8.9625 8.76201 9.08906 8.77578C9.24375 8.79414 9.6 8.87217 9.7875 9.12002C10.0312 9.44131 10.0219 10.1711 10.0219 10.1711C10.0219 10.1711 10.1625 12.1723 9.69375 12.4201C9.375 12.5899 8.93438 12.2411 7.99688 10.653C7.51406 9.83604 7.15313 8.93643 7.15313 8.93643C7.15313 8.93643 7.08281 8.7666 6.95625 8.67939C6.80156 8.56924 6.59062 8.53711 6.59062 8.53711L4.34062 8.55088C4.34062 8.55088 4.00312 8.56006 3.87656 8.70234C3.76875 8.83086 3.86719 9.09707 3.86719 9.09707C3.86719 9.09707 5.62969 13.1361 7.62656 15.1694C9.46875 17.0283 11.5453 16.9044 11.5453 16.9044Z" fill="white"/>
</g>
<defs>
<clipPath id="clip0_2_30">
<rect width="24" height="23.5" fill="white"/>
</clipPath>
</defs>
</svg>
